<mxfile host="Electron" modified="2024-11-09T09:03:16.096Z" agent="Mozilla/5.0 (Windows NT 10.0; Win64; x64) AppleWebKit/537.36 (KHTML, like Gecko) draw.io/24.5.3 Chrome/124.0.6367.207 Electron/30.0.6 Safari/537.36" etag="mniIkVCm1Vbl8yJhgkSm" version="24.5.3" type="device">
  <diagram name="ページ1" id="UTu1TZvdBzEs2BnWj2Kf">
    <mxGraphModel dx="2934" dy="749" grid="1" gridSize="10" guides="1" tooltips="1" connect="1" arrows="1" fold="1" page="1" pageScale="1" pageWidth="827" pageHeight="1169" math="0" shadow="0">
      <root>
        <mxCell id="0" />
        <mxCell id="1" parent="0" />
        <mxCell id="NWSBmNuGx8_1oZ4nkqe4-1" value="state: like-sandwich&lt;div&gt;system utterance:&amp;nbsp;what kind of sandwich do you like?&lt;/div&gt;" style="rounded=0;whiteSpace=wrap;html=1;" parent="1" vertex="1">
          <mxGeometry x="-1550" y="510" width="170" height="120" as="geometry" />
        </mxCell>
        <mxCell id="NWSBmNuGx8_1oZ4nkqe4-2" value="" style="endArrow=classic;html=1;rounded=0;exitX=1;exitY=0.5;exitDx=0;exitDy=0;entryX=0;entryY=0.5;entryDx=0;entryDy=0;" parent="1" source="NWSBmNuGx8_1oZ4nkqe4-1" target="NWSBmNuGx8_1oZ4nkqe4-3" edge="1">
          <mxGeometry width="50" height="50" relative="1" as="geometry">
            <mxPoint x="-1310" y="720" as="sourcePoint" />
            <mxPoint x="-1170" y="480" as="targetPoint" />
          </mxGeometry>
        </mxCell>
        <mxCell id="NWSBmNuGx8_1oZ4nkqe4-3" value="state: egg-salad-sandwich" style="rounded=0;whiteSpace=wrap;html=1;" parent="1" vertex="1">
          <mxGeometry x="-1190" y="330" width="180" height="70" as="geometry" />
        </mxCell>
        <mxCell id="NWSBmNuGx8_1oZ4nkqe4-4" value="" style="endArrow=classic;html=1;rounded=0;exitX=1;exitY=0.5;exitDx=0;exitDy=0;entryX=0;entryY=0.5;entryDx=0;entryDy=0;" parent="1" source="NWSBmNuGx8_1oZ4nkqe4-1" target="NWSBmNuGx8_1oZ4nkqe4-6" edge="1">
          <mxGeometry width="50" height="50" relative="1" as="geometry">
            <mxPoint x="-1370" y="580" as="sourcePoint" />
            <mxPoint x="-1090" y="465" as="targetPoint" />
          </mxGeometry>
        </mxCell>
        <mxCell id="NWSBmNuGx8_1oZ4nkqe4-6" value="state: known-sandwich" style="rounded=0;whiteSpace=wrap;html=1;" parent="1" vertex="1">
          <mxGeometry x="-1080" y="585" width="180" height="70" as="geometry" />
        </mxCell>
        <mxCell id="NWSBmNuGx8_1oZ4nkqe4-7" value="state: new-sandwich" style="rounded=0;whiteSpace=wrap;html=1;" parent="1" vertex="1">
          <mxGeometry x="-1230" y="760" width="180" height="70" as="geometry" />
        </mxCell>
        <mxCell id="NWSBmNuGx8_1oZ4nkqe4-8" value="state: #final" style="rounded=0;whiteSpace=wrap;html=1;" parent="1" vertex="1">
          <mxGeometry x="-1340" y="870" width="180" height="70" as="geometry" />
        </mxCell>
        <mxCell id="NWSBmNuGx8_1oZ4nkqe4-9" value="" style="endArrow=classic;html=1;rounded=0;entryX=-0.002;entryY=0.654;entryDx=0;entryDy=0;entryPerimeter=0;" parent="1" target="NWSBmNuGx8_1oZ4nkqe4-7" edge="1">
          <mxGeometry width="50" height="50" relative="1" as="geometry">
            <mxPoint x="-1380" y="570" as="sourcePoint" />
            <mxPoint x="-1070" y="595" as="targetPoint" />
          </mxGeometry>
        </mxCell>
        <mxCell id="NWSBmNuGx8_1oZ4nkqe4-10" value="" style="endArrow=classic;html=1;rounded=0;entryX=0;entryY=0.5;entryDx=0;entryDy=0;exitX=1;exitY=0.5;exitDx=0;exitDy=0;" parent="1" source="NWSBmNuGx8_1oZ4nkqe4-1" target="NWSBmNuGx8_1oZ4nkqe4-8" edge="1">
          <mxGeometry width="50" height="50" relative="1" as="geometry">
            <mxPoint x="-1370" y="580" as="sourcePoint" />
            <mxPoint x="-1070" y="736" as="targetPoint" />
          </mxGeometry>
        </mxCell>
        <mxCell id="NWSBmNuGx8_1oZ4nkqe4-11" value="&lt;i&gt;conditions:&lt;/i&gt;&lt;div&gt;type=tell-like-specific-sandwich&lt;br&gt;&lt;/div&gt;&lt;div&gt;&lt;span style=&quot;background-color: initial;&quot;&gt;_eq(#favorite-sandwich, &quot;egg salad sandwich&quot;)&lt;/span&gt;&lt;/div&gt;&lt;div&gt;&lt;i&gt;actions&lt;/i&gt;:&amp;nbsp;&lt;br&gt;_set(&amp;amp;topic_sandwich, #favorite-sandwich)&lt;br&gt;&lt;/div&gt;" style="text;html=1;align=left;verticalAlign=middle;whiteSpace=wrap;rounded=0;" parent="1" vertex="1">
          <mxGeometry x="-1510" y="370" width="280" height="70" as="geometry" />
        </mxCell>
        <mxCell id="NWSBmNuGx8_1oZ4nkqe4-12" value="&lt;i&gt;conditions:&lt;/i&gt;&lt;div&gt;type=tell-like-specific-sandwich&lt;br&gt;is_known_sandwich(#favorite-sandwich)&lt;br&gt;&lt;i&gt;actions&lt;/i&gt;:&amp;nbsp;&lt;/div&gt;&lt;div&gt;_set(&amp;amp;topic_sandwich,#favorite-sandwich)&lt;br&gt;&lt;/div&gt;&lt;div&gt;&lt;br&gt;&lt;/div&gt;" style="text;html=1;align=left;verticalAlign=middle;whiteSpace=wrap;rounded=0;" parent="1" vertex="1">
          <mxGeometry x="-1270" y="520" width="290" height="60" as="geometry" />
        </mxCell>
        <mxCell id="NWSBmNuGx8_1oZ4nkqe4-13" value="&lt;i&gt;conditions&lt;/i&gt;:&lt;div&gt;type=tell-like-specific-sandwich&lt;br&gt;is_novel_sandwich(#favorite-sandwich)&lt;/div&gt;" style="text;html=1;align=left;verticalAlign=middle;whiteSpace=wrap;rounded=0;" parent="1" vertex="1">
          <mxGeometry x="-1270" y="690" width="290" height="60" as="geometry" />
        </mxCell>
      </root>
    </mxGraphModel>
  </diagram>
</mxfile>
